Coordinates
version=1
nRows=13
nColumns=40
inDegrees=yes

Units are S.I. units (second, meters, Newtons, ...)
Angles are in degrees.

endheader
time	pelvis_tilt	pelvis_list	pelvis_rotation	pelvis_tx	pelvis_ty	pelvis_tz	hip_flexion_r	hip_adduction_r	hip_rotation_r	knee_angle_r	knee_angle_r_beta	ankle_angle_r	subtalar_angle_r	mtp_angle_r	hip_flexion_l	hip_adduction_l	hip_rotation_l	knee_angle_l	knee_angle_l_beta	ankle_angle_l	subtalar_angle_l	mtp_angle_l	lumbar_extension	lumbar_bending	lumbar_rotation	arm_flex_r	arm_add_r	arm_rot_r	elbow_flex_r	pro_sup_r	wrist_flex_r	wrist_dev_r	arm_flex_l	arm_add_l	arm_rot_l	elbow_flex_l	pro_sup_l	wrist_flex_l	wrist_dev_l
     18.49500000	     -5.21426752	     -5.47211914	      4.50946324	      0.84238106	      0.91922890	      0.46665063	     -0.85438350	      5.98300218	    -19.15034407	      9.32553855	      9.32553855	     17.77788857	      9.80008775	     -3.28030163	     31.94961638	     -6.72800490	     -2.99786743	     19.58687633	     19.58687633	      1.83297337	     -8.43541496	      7.14667178	     -7.50652368	      8.37189131	      4.76259226	     41.79524194	    -15.26365388	     -6.19595332	     88.87385532	     44.54308724	      0.00000000	      0.00000000	    -15.74024116	     -6.89759432	      5.56258218	     24.73634348	     45.38743507	      0.00000000	      0.00000000
     18.50750000	     -5.22599962	     -5.38603104	      4.26567948	      0.84326936	      0.91835258	      0.46506542	     -1.33528197	      5.74298063	    -18.92587826	      9.56338977	      9.56338977	     18.11064267	      9.85437598	     -3.24256242	     31.48123593	     -6.49969467	     -2.70028154	     20.43943297	     20.43943297	      1.81319657	     -8.91924645	      7.00933647	     -7.38492021	      8.18097832	      4.75293215	     41.56451762	    -15.16452394	     -6.04644589	     89.48684694	     44.52269122	      0.00000000	      0.00000000	    -15.75159076	     -6.84756924	      5.60297548	     24.81110395	     45.38029054	      0.00000000	      0.00000000
     18.52000000	     -5.30089762	     -5.28714851	      4.04164226	      0.84415475	      0.91753677	      0.46328069	     -1.72902310	      5.45909421	    -18.70261103	      9.83244954	      9.83244954	     18.40345940	      9.87648873	     -3.19229006	     31.14508880	     -6.22375199	     -2.30446101	     21.28066994	     21.28066994	      1.90289349	     -9.53743979	      6.85240139	     -7.22909292	      8.01746031	      4.63998545	     41.16500347	    -15.02081387	     -5.82055737	     90.25333799	     44.49400775	      0.00000000	      0.00000000	    -15.67666417	     -6.75231640	      5.64447610	     24.92207503	     45.37436231	      0.00000000	      0.00000000
     18.53250000	     -5.50703331	     -5.17219423	      3.86856839	      0.84487168	      0.91681502	      0.46115989	     -1.83103847	      5.07415626	    -18.53673663	     10.38164894	     10.38164894	     18.83468452	      9.87330862	     -2.69704147	     30.93553308	     -5.79192491	     -1.50223246	     21.91192761	     21.91192761	      1.89189947	    -10.85351778	      6.87453087	     -7.02466788	      7.89680786	      4.83000617	     40.06633495	    -15.56302852	     -5.40389648	     92.85561345	     44.41758531	      0.00000000	      0.00000000	    -15.36475722	     -6.75660337	      5.76840056	     25.31544678	     45.35873131	      0.00000000	      0.00000000
     18.54500000	     -5.54814279	     -5.02718121	      3.67793681	      0.84583571	      0.91658798	      0.45902939	     -2.27327470	      4.71395555	    -18.32863456	     10.61254892	     10.61254892	     18.95365730	      9.91807287	     -2.62579909	     30.64946023	     -5.50785985	     -1.26162425	     22.68008393	     22.68008393	      2.27222322	    -11.35971875	      6.65088078	     -6.91317290	      7.70753783	      4.73334189	     39.41268246	    -15.52300685	     -5.33030582	     93.09264238	     44.41095190	      0.00000000	      0.00000000	    -14.98559529	     -6.73922269	      5.82345562	     25.42312344	     45.35651338	      0.00000000	      0.00000000
     18.55750000	     -5.72275787	     -4.87864753	      3.52186361	      0.84655717	      0.91640139	      0.45664467	     -2.39046172	      4.26033883	    -18.22167183	     11.17246252	     11.17246252	     19.15020205	      9.94272899	     -2.41771140	     30.57512265	     -5.12144275	     -0.75839538	     23.42355877	     23.42355877	      2.64532504	    -12.41299150	      6.77352712	     -6.72508685	      7.53326131	      4.85597861	     38.26389616	    -15.87969709	     -5.28018395	     94.15553098	     44.38989291	      0.00000000	      0.00000000	    -14.31909813	     -6.73570503	      5.96436283	     25.56197428	     45.34590048	      0.00000000	      0.00000000
     18.57000000	     -5.75486399	     -4.69510131	      3.37889644	      0.84749248	      0.91677430	      0.45409825	     -2.81406985	      3.81522986	    -18.04846329	     11.41710180	     11.41710180	     19.06419226	      9.98156018	     -2.36359533	     30.25832336	     -4.80781830	     -0.65949498	     23.98180077	     23.98180077	      3.20220931	    -12.83894034	      6.56420491	     -6.65512082	      7.35704587	      4.61600286	     37.38152426	    -15.76211598	     -5.16446298	     94.08494164	     44.38794600	      0.00000000	      0.00000000	    -13.73005042	     -6.69723153	      5.99564196	     25.74922269	     45.35108778	      0.00000000	      0.00000000
     18.58250000	     -5.80796475	     -4.56125709	      3.22845064	      0.84839166	      0.91729988	      0.45152264	     -3.14298199	      3.39412263	    -17.88563887	     11.77985434	     11.77985434	     18.96093954	     10.03451025	     -2.35008568	     29.97435308	     -4.54579367	     -0.52321492	     24.51061077	     24.51061077	      3.79713050	    -13.31741273	      6.37711037	     -6.61229488	      7.20623185	      4.34893641	     36.37139428	    -15.68454720	     -5.04090277	     93.92429630	     44.38746414	      0.00000000	      0.00000000	    -13.03738402	     -6.66175047	      6.01182669	     25.99461680	     45.36043022	      0.00000000	      0.00000000
     18.59500000	     -6.03485123	     -4.32716317	      3.04106701	      0.84903728	      0.91764942	      0.44862794	     -2.82455563	      2.61621836	    -18.00152395	     13.07064269	     13.07064269	     19.05472556	     10.25041922	     -2.56851643	     29.89595506	     -4.08998354	     -0.24730176	     25.04301445	     25.04301445	      4.41405695	    -14.29954677	      6.96037027	     -6.34209355	      6.98613140	      4.83526028	     34.64933699	    -16.49428308	     -5.21965407	     93.82902009	     44.40405491	      0.00000000	      0.00000000	    -12.05789690	     -6.80355019	      5.98625010	     26.38651827	     45.38145950	      0.00000000	      0.00000000
     18.60750000	     -6.11597699	     -4.14414706	      2.85662022	      0.84983142	      0.91844815	      0.44575642	     -2.79561763	      1.95433918	    -18.02120063	     14.06266480	     14.06266480	     18.93145107	     10.50007408	     -2.78898420	     29.53855324	     -3.76096282	     -0.20285384	     25.37472733	     25.37472733	      5.20230740	    -14.72653817	      7.47635660	     -6.30272354	      6.83078735	      4.96974056	     33.06495003	    -16.77393674	     -5.43651565	     93.54910968	     44.42798159	      0.00000000	      0.00000000	    -11.11207121	     -6.88170838	      5.97448284	     26.76290941	     45.39915299	      0.00000000	      0.00000000
     18.62000000	     -6.02206707	     -4.17374022	      2.73983026	      0.85087388	      0.91956552	      0.44291642	     -3.05729200	      1.60634322	    -17.89072741	     14.82359364	     14.82359364	     18.61875712	     10.52116165	     -2.88479178	     28.97169722	     -3.67191338	     -0.18289651	     25.64815189	     25.64815189	      5.82741090	    -14.99101107	      7.38672981	     -6.39379047	      6.93616860	      4.62876761	     31.63609604	    -16.55543245	     -5.28992841	     93.03912372	     44.43641706	      0.00000000	      0.00000000	    -10.26198762	     -6.89642099	      5.95800990	     27.12300450	     45.41583654	      0.00000000	      0.00000000
     18.63250000	     -6.21625734	     -3.91712578	      2.44113825	      0.85152259	      0.92021130	      0.44004753	     -2.29854281	      0.62254858	    -17.82404000	     16.96376092	     16.96376092	     18.43823030	     10.44953216	     -3.77598537	     28.58694909	     -3.33092188	     -0.45713747	     25.74639922	     25.74639922	      6.55777289	    -15.17578696	      7.80322205	     -6.15721592	      6.65844299	      5.11331149	     29.87608985	    -17.14143832	     -5.67123894	     91.58742777	     44.49957909	      0.00000000	      0.00000000	     -9.25862463	     -7.09979076	      5.77471181	     27.93650048	     45.45914080	      0.00000000	      0.00000000
     18.64500000	     -6.27245824	     -3.81763308	      2.19456551	      0.85222923	      0.92108637	      0.43727272	     -1.69332966	     -0.14133771	    -17.63517772	     19.02432261	     19.02432261	     17.95329556	     10.18267798	     -4.80998390	     28.03749973	     -3.15012123	     -0.66091714	     25.80060746	     25.80060746	      7.28034899	    -15.20732905	      8.10712305	     -6.12490341	      6.57962790	      5.23628265	     28.18601103	    -17.24268792	     -5.96110008	     90.15378846	     44.55854644	      0.00000000	      0.00000000	     -8.33508317	     -7.26959620	      5.57383063	     28.80723539	     45.50257018	      0.00000000	      0.00000000
